# xmcd
#
# Track frame offsets: 
#        150
#        17034
#        31846
#        48201
#        63127
#        81541
#        97433
#        110212
#        124893
#        141083
#        155292
#        172135
#        188921
#        205148
#        219647
#        234376
#        251611
#        267821
#        281543
#        297749
#
# Disc length: 4180 seconds
#
# Revision: 0
# Processed by: cddbd v1.5.2PL0 Copyright (c) Steve Scherf et al.
# Submitted via: ExactAudioCopy v0.95b4
#
DISCID=35105214
DTITLE=배호 - 천상의 가수 배호 전집 (아세아-2006) (10 CD)-02
DYEAR=2006
DGENRE=Country
TTITLE0=안개 낀 장충단공원
TTITLE1=초가삼간
TTITLE2=비겁한 맹서
TTITLE3=가로등
TTITLE4=남강의 비가
TTITLE5=돌아가는 삼각지
TTITLE6=추억의 오솔길
TTITLE7=비오는 남산
TTITLE8=기타에 노래싣고
TTITLE9=생일없는 소년
TTITLE10=둘만의 사랑길
TTITLE11=황토 십리길
TTITLE12=설악산의 노래
TTITLE13=당신은 가고
TTITLE14=사나이 연가
TTITLE15=나는 통곡한다
TTITLE16=안개 낀 장충단공원(MR)
TTITLE17=돌아가는 삼각지(경음악)
TTITLE18=비겁한 맹서(MR)
TTITLE19=황토 십리길(경음악)
EXTD=
EXTT0=
EXTT1=
EXTT2=
EXTT3=
EXTT4=
EXTT5=
EXTT6=
EXTT7=
EXTT8=
EXTT9=
EXTT10=
EXTT11=
EXTT12=
EXTT13=
EXTT14=
EXTT15=
EXTT16=
EXTT17=
EXTT18=
EXTT19=
PLAYORDER=
